<svg xmlns="http://www.w3.org/2000/svg" xmlns:xlink="http://www.w3.org/1999/xlink" width="40.09" height="40.188" viewBox="0 0 40.09 40.188">
  <metadata><?xpacket begin="﻿" id="W5M0MpCehiHzreSzNTczkc9d"?>
<x:xmpmeta xmlns:x="adobe:ns:meta/" x:xmptk="Adobe XMP Core 5.6-c138 79.159824, 2016/09/14-01:09:01        ">
   <rdf:RDF xmlns:rdf="http://www.w3.org/1999/02/22-rdf-syntax-ns#">
      <rdf:Description rdf:about=""/>
   </rdf:RDF>
</x:xmpmeta>
                                                                                                    
                                                                                                    
                                                                                                    
                                                                                                    
                                                                                                    
                                                                                                    
                                                                                                    
                                                                                                    
                                                                                                    
                                                                                                    
                                                                                                    
                                                                                                    
                                                                                                    
                                                                                                    
                                                                                                    
                                                                                                    
                                                                                                    
                                                                                                    
                                                                                                    
                                                                                                    
                           
<?xpacket end="w"?></metadata>
<defs>
    <style>
      .cls-1 {
        fill-rule: evenodd;
        fill: url(#linear-gradient);
        filter: url(#filter);
      }
    </style>
    <linearGradient id="linear-gradient" x1="1869.75" y1="836.139" x2="1829.66" y2="796.049" gradientUnits="userSpaceOnUse">
      <stop offset="0" stop-color="#NaNNaNNaN"/>
      <stop offset="1" stop-color="#fff"/>
    </linearGradient>
    <filter id="filter" x="1829.66" y="796" width="40.09" height="40.188" filterUnits="userSpaceOnUse">
      <feFlood result="flood" flood-color="#ff3b4a"/>
      <feComposite result="composite" operator="in" in2="SourceGraphic"/>
      <feBlend result="blend" in2="SourceGraphic"/>
    </filter>
  </defs>
  <path id="Settings" class="cls-1" d="M1849.71,821.657a5.564,5.564,0,1,1,5.55-5.565A5.562,5.562,0,0,1,1849.71,821.657Zm0-9.686a4.122,4.122,0,1,0,4.11,4.121A4.118,4.118,0,0,0,1849.71,811.971Zm-2.42,24.218a0.721,0.721,0,0,1-.69-0.545l-1.24-4.963a15.614,15.614,0,0,1-2.83-1.205l-4.4,2.649a0.727,0.727,0,0,1-.88-0.106l-3.42-3.431a0.724,0.724,0,0,1-.11-0.879l2.65-4.407a14.428,14.428,0,0,1-1.18-2.838l-4.98-1.247a0.718,0.718,0,0,1-.54-0.7v-4.844a0.714,0.714,0,0,1,.54-0.7l4.95-1.238a16.056,16.056,0,0,1,1.2-2.845l-2.64-4.415a0.727,0.727,0,0,1,.11-0.881l3.41-3.423a0.712,0.712,0,0,1,.88-0.108l4.4,2.646a15.527,15.527,0,0,1,2.83-1.177l1.24-4.99a0.723,0.723,0,0,1,.7-0.547h4.83a0.723,0.723,0,0,1,.7.547l1.23,4.966a15.586,15.586,0,0,1,2.83,1.2l4.41-2.652a0.743,0.743,0,0,1,.88.111l3.41,3.424a0.715,0.715,0,0,1,.11.882l-2.64,4.419a15.627,15.627,0,0,1,1.17,2.826l4.98,1.252a0.724,0.724,0,0,1,.55.7v4.841a0.722,0.722,0,0,1-.55.7l-4.98,1.252a15.193,15.193,0,0,1-1.17,2.829l2.65,4.416a0.728,0.728,0,0,1-.11.882l-3.42,3.43a0.72,0.72,0,0,1-.87.109l-4.41-2.652a15.939,15.939,0,0,1-2.83,1.205l-1.24,4.963a0.712,0.712,0,0,1-.69.545l-4.84,0h0Zm-4.78-8.267a0.694,0.694,0,0,1,.36.1,14.259,14.259,0,0,0,3.28,1.39,0.748,0.748,0,0,1,.51.523l1.2,4.815,3.7,0,1.2-4.817a0.732,0.732,0,0,1,.5-0.518,14.136,14.136,0,0,0,3.28-1.391,0.715,0.715,0,0,1,.73,0l4.28,2.58,2.62-2.635-2.57-4.289a0.739,0.739,0,0,1,0-.734,13.8,13.8,0,0,0,1.35-3.27,0.727,0.727,0,0,1,.52-0.509l4.84-1.217v-3.714l-4.84-1.216a0.721,0.721,0,0,1-.52-0.51,14.172,14.172,0,0,0-1.35-3.272,0.732,0.732,0,0,1,0-.73l2.57-4.29-2.62-2.628-4.28,2.576a0.708,0.708,0,0,1-.73.006,14.368,14.368,0,0,0-3.28-1.392,0.7,0.7,0,0,1-.5-0.517l-1.2-4.82h-3.71l-1.21,4.848a0.7,0.7,0,0,1-.5.52,13.8,13.8,0,0,0-3.27,1.362,0.7,0.7,0,0,1-.73-0.007l-4.28-2.574-2.62,2.631,2.57,4.285a0.736,0.736,0,0,1,0,.732,14.315,14.315,0,0,0-1.38,3.293,0.738,0.738,0,0,1-.52.506l-4.8,1.2v3.715l4.83,1.215a0.728,0.728,0,0,1,.52.511,13.782,13.782,0,0,0,1.36,3.275,0.712,0.712,0,0,1-.01.732l-2.56,4.284,2.62,2.632,4.27-2.576A0.753,0.753,0,0,1,1842.51,827.922Z" transform="translate(-1829.66 -796)"/>
</svg>
